<svg viewBox="0 0 427 302.1" xmlns="http://www.w3.org/2000/svg"><title/><g><path class="svg__burger-button" fill="#fff" d="M19.63 174a5.39 5.39 0 0 0-6.39 4.14 39.53 39.53 0 0 0 38.66 47.86h13.94l42.06 36.25a28.93 28.93 0 0 0 36.36 1 5.39 5.39 0 0 0-6.56-8.56 18.11 18.11 0 0 1-22.76-.64l-32.58-28.05h92.76l-4.34 3.34a5.39 5.39 0 0 0 6.57 8.55l15.48-11.89h45.69a5.39 5.39 0 0 0 0-10.78h-186.62a28.79 28.79 0 0 1-28.76-28.75 29.18 29.18 0 0 1 .64-6.05 5.38 5.38 0 0 0-4.15-6.42zM400.92 266.5v-26.6a5.39 5.39 0 0 0-10.78 0v26.6a24.85 24.85 0 0 1-24.82 24.82h-303.64a24.85 24.85 0 0 1-24.82-24.82v-26.6a5.39 5.39 0 1 0-10.78 0v26.6a35.64 35.64 0 0 0 35.6 35.6h303.64a35.64 35.64 0 0 0 35.6-35.6zM156.24 240.47l-2.11 1.62a5.39 5.39 0 1 0 6.56 8.55l2.12-1.62a5.39 5.39 0 1 0-6.57-8.55zM44.14 75.94a5.29 5.29 0 0 0 2.57.66 5.39 5.39 0 0 0 4.74-2.82q.75-1.38 1.55-2.73a5.39 5.39 0 0 0-9.33-5.41c-.57 1-1.13 2-1.67 3a5.38 5.38 0 0 0 2.14 7.3zM218.37 42.6a5.39 5.39 0 0 0 0-10.78h-5.92a5.39 5.39 0 1 0 0 10.78zM183.83 94.27a5.39 5.39 0 0 0 0-10.78h-5.92a5.39 5.39 0 1 0 0 10.78zM252.91 94.27a5.39 5.39 0 1 0 0-10.78h-5.91a5.39 5.39 0 0 0 0 10.78zM287.45 42.6a5.39 5.39 0 0 0 0-10.78h-5.92a5.39 5.39 0 1 0 0 10.78zM322 94.27a5.39 5.39 0 0 0 0-10.78h-5.92a5.39 5.39 0 1 0 0 10.78zM149.17 42.6a5.39 5.39 0 1 0 0-10.78h-5.91a5.39 5.39 0 1 0 0 10.78zM114.51 94.27a5.39 5.39 0 1 0 0-10.78h-5.91a5.39 5.39 0 0 0 0 10.78zM15.2 163.12a40.65 40.65 0 0 1 13.55 5.12c2.83 1.66 5.43 3.53 8.17 5.51 8.79 6.33 18.76 13.5 37.84 13.5s29-7.17 37.83-13.5c8.55-6.16 15.93-11.47 31.53-11.47s23 5.31 31.56 11.46 18.25 13.13 36.27 13.48h1.66c18.08-.35 28.11-7.3 37-13.42s16.65-11.52 32.31-11.52 23 5.31 31.53 11.47c8.79 6.33 18.75 13.5 37.83 13.5h.2v36.17c0 9.32 0 14.49.18 17.51a5.35 5.35 0 0 0-.17 1.34v21.46a8.5 8.5 0 0 1-2.58 6.14 8.4 8.4 0 0 1-6.18 2.46 8.88 8.88 0 0 1-8.44-9.06v-8.77a17.65 17.65 0 0 0-17.64-17.63h-1.47a17.65 17.65 0 0 0-17.63 17.63 14.85 14.85 0 0 1-29.7 0v-68.6a5.39 5.39 0 1 0-10.78 0v68.6a25.63 25.63 0 0 0 51.26 0 6.85 6.85 0 0 1 6.85-6.85h1.47a6.86 6.86 0 0 1 6.86 6.85v8.76c0 10.75 8.53 19.65 19 19.84h.36a19.37 19.37 0 0 0 19.38-19.38v-20.07a5.47 5.47 0 0 0 .12-2.2c-.08-1.79-.19-11.72-.1-55.11 12.26-2.12 19.93-7.61 26.86-12.59 2.54-1.84 5-3.57 7.56-5.14a28.73 28.73 0 0 1-16.74 46 5.39 5.39 0 0 0 1.05 10.67 5 5 0 0 0 1.08-.11 39.53 39.53 0 0 0 24.66-61.07 41.14 41.14 0 0 1 4.08-1 18.78 18.78 0 0 0-3.58-37.21h-4.06c-2.86-69.89-60.61-125.89-131.18-125.89h-115.62a131.24 131.24 0 0 0-99.65 45.81 5.39 5.39 0 1 0 8.18 7 120.46 120.46 0 0 1 91.47-42h115.62a120.66 120.66 0 0 1 120.37 115.1h-356.37a120.25 120.25 0 0 1 5.29-30.45 5.39 5.39 0 1 0-10.29-3.2 130.78 130.78 0 0 0-5.79 33.65h-7.43a18.78 18.78 0 0 0-3.58 37.21zm346.67 75.41c-.13-.13-.26-.26-.4-.38.14.12.27.25.4.38zm-.66-.58a5.11 5.11 0 0 0-.48-.33 5.11 5.11 0 0 1 .48.38zm-.75-.47a5.52 5.52 0 0 0-.55-.26 5.52 5.52 0 0 1 .55.26zm-.9-.36a3.63 3.63 0 0 0-.56-.12 3.32 3.32 0 0 1 .56.12zm3.7 4a5.13 5.13 0 0 0-.26-.87 4.79 4.79 0 0 1 .26.88zm-1.15-2.35a5.48 5.48 0 0 1 .35.49 5.48 5.48 0 0 0-.35-.48zm.5.71a4.55 4.55 0 0 1 .37.73 5 5 0 0 0-.37-.72zm-343.83-102.79h389.44a8 8 0 0 1 8 8 7.91 7.91 0 0 1-6.39 7.83 51.19 51.19 0 0 0-17 6.42c-3.27 1.92-6.2 4-9 6.06-8.55 6.15-15.93 11.47-31.54 11.47s-23-5.32-31.53-11.47c-8.79-6.33-18.75-13.5-37.83-13.5s-29.34 7.13-38.44 13.43c-8.7 6-16.22 11.22-31.15 11.51h-1c-14.84-.29-22.04-5.44-30.34-11.44-8.8-6.33-18.77-13.49-37.85-13.49s-29 7.17-37.83 13.5c-8.55 6.15-15.93 11.47-31.53 11.47s-23-5.32-31.54-11.47c-2.82-2-5.75-4.14-9-6.06a51.19 51.19 0 0 0-17-6.42 7.91 7.91 0 0 1-6.39-7.83 8 8 0 0 1 7.92-8.01z"/></g></svg>